
<svg width="75" height="53" viewBox="0 0 75 53" fill="none" xmlns="http://www.w3.org/2000/svg">
<path d="M66.875 52.1875H39.2188V39.166C45.4414 38.3594 50.2812 32.9434 50.2812 26.375C50.2812 19.9219 45.4414 14.5059 39.2188 13.6992V0.5625H66.875C70.9082 0.5625 74.25 3.9043 74.25 7.9375V11.625H66.875C62.7266 11.625 59.5 14.9668 59.5 19V33.75C59.5 37.8984 62.7266 41.125 66.875 41.125H74.25V44.8125C74.25 48.9609 70.9082 52.1875 66.875 52.1875ZM35.5312 13.6992C29.1934 14.5059 24.4688 19.9219 24.4688 26.375C24.4688 32.9434 29.1934 38.3594 35.5312 39.166V52.1875H7.875C3.72656 52.1875 0.5 48.9609 0.5 44.8125V41.125H7.875C11.9082 41.125 15.25 37.8984 15.25 33.75V19C15.25 14.9668 11.9082 11.625 7.875 11.625H0.5V7.9375C0.5 3.9043 3.72656 0.5625 7.875 0.5625H35.5312V13.6992ZM35.5312 35.4785C31.2676 34.5566 28.1562 30.8691 28.1562 26.375C28.1562 21.9961 31.2676 18.1934 35.5312 17.3867V35.4785ZM39.2188 35.4785V17.3867C43.3672 18.1934 46.5938 21.9961 46.5938 26.375C46.5938 30.8691 43.3672 34.5566 39.2188 35.4785ZM66.875 15.3125H74.25V37.4375H66.875C64.8008 37.4375 63.1875 35.8242 63.1875 33.75V19C63.1875 17.041 64.8008 15.3125 66.875 15.3125ZM7.875 37.4375H0.5V15.3125H7.875C9.83398 15.3125 11.5625 17.041 11.5625 19V33.75C11.5625 35.8242 9.83398 37.4375 7.875 37.4375Z" fill="#F6F6F6"/>
</svg>
