<svg width="79" height="98" viewBox="0 0 79 98" fill="none" xmlns="http://www.w3.org/2000/svg">
<path d="M60.5 9.5C60.5 12.875 58.625 15.6875 56 17.375C53.1875 19.0625 49.625 19.0625 47 17.375C44.1875 15.6875 42.5 12.875 42.5 9.5C42.5 6.3125 44.1875 3.5 47 1.8125C49.625 0.125 53.1875 0.125 56 1.8125C58.625 3.5 60.5 6.3125 60.5 9.5ZM23.9375 33.5L19.625 37.8125C17.375 40.25 13.4375 40.25 11.1875 37.8125C8.75 35.5625 8.75 31.625 11.1875 29.375L15.5 25.0625C19.625 20.9375 25.25 18.5 31.0625 18.5C33.3125 18.5 35.375 18.875 37.4375 19.625L46.625 22.4375C53.375 24.5 59 29.5625 61.625 36.125L62.9375 38.9375C63.875 41.1875 65.9375 42.5 68.375 42.5H72.5C75.6875 42.5 78.5 45.3125 78.5 48.5C78.5 51.875 75.6875 54.5 72.5 54.5H68.375C61.0625 54.5 54.6875 50.1875 51.875 43.4375L50.75 41.1875L45.125 56.5625L55.625 63.3125C59 65.375 60.6875 69.5 59.5625 73.4375L54.125 92.1875C53.1875 95.375 50 97.25 46.8125 96.3125C43.625 95.375 41.75 92.1875 42.6875 89L47.375 72.3125L31.25 62.1875C26.5625 59.1875 24.5 53.375 26.1875 48.125L32 30.6875C31.8125 30.6875 31.4375 30.5 31.0625 30.5C28.4375 30.5 25.8125 31.625 23.9375 33.5ZM17.5625 66.5L20.9375 58.8125C22.4375 62.1875 24.875 65.1875 28.0625 67.25L29.9375 68.375L27.6875 73.25C26.1875 76.4375 23 78.5 19.4375 78.5H6.5C3.125 78.5 0.5 75.875 0.5 72.5C0.5 69.3125 3.125 66.5 6.5 66.5H17.5625Z" fill="#F6F6F6"/>
</svg>