
<svg width="18" height="18" viewBox="0 0 18 18" fill="none" xmlns="http://www.w3.org/2000/svg">
<path d="M16.25 0.25C16.9141 0.25 17.5 0.835938 17.5 1.53906V16.5C17.5 17.2031 16.9141 17.75 16.25 17.75H1.21094C0.546875 17.75 0 17.2031 0 16.5V1.53906C0 0.835938 0.546875 0.25 1.21094 0.25H16.25ZM5.27344 15.25V6.92969H2.69531V15.25H5.27344ZM3.98438 5.75781C4.80469 5.75781 5.46875 5.09375 5.46875 4.27344C5.46875 3.45312 4.80469 2.75 3.98438 2.75C3.125 2.75 2.46094 3.45312 2.46094 4.27344C2.46094 5.09375 3.125 5.75781 3.98438 5.75781ZM15 15.25V10.6797C15 8.45312 14.4922 6.69531 11.875 6.69531C10.625 6.69531 9.76562 7.39844 9.41406 8.0625H9.375V6.92969H6.91406V15.25H9.49219V11.1484C9.49219 10.0547 9.6875 9 11.0547 9C12.3828 9 12.3828 10.25 12.3828 11.1875V15.25H15Z" fill="black"/>
</svg>
