
<svg width="205" height="205" viewBox="0 0 205 205" fill="none" xmlns="http://www.w3.org/2000/svg">
<path d="M46.7031 54H81.8594C112.719 2.82812 160.766 0.875 189.672 6.34375C194.359 7.125 197.875 10.6406 198.656 15.3281C204.125 44.2344 202.172 92.2812 151 123.141V158.297C151 168.062 145.531 177.438 136.938 182.516L102.562 202.828C99.4375 204.781 95.9219 204.781 93.1875 202.828C90.0625 201.266 88.5 198.141 88.5 194.625V150.094C88.5 141.109 84.9844 132.516 78.7344 126.266C72.4844 120.016 63.8906 116.5 54.9062 116.5H10.375C6.85938 116.5 3.73438 114.938 2.17188 111.812C0.21875 109.078 0.21875 105.562 2.17188 102.438L22.4844 68.0625C27.5625 59.4688 36.9375 54 46.7031 54ZM166.625 54C166.625 48.5312 163.5 43.4531 158.812 40.7188C153.734 37.9844 147.875 37.9844 143.188 40.7188C138.109 43.4531 135.375 48.5312 135.375 54C135.375 59.8594 138.109 64.9375 143.188 67.6719C147.875 70.4062 153.734 70.4062 158.812 67.6719C163.5 64.9375 166.625 59.8594 166.625 54ZM65.8438 187.594C52.5625 201.266 26.7812 203.609 11.9375 204C5.6875 204.391 0.609375 199.312 1 193.062C1.39062 178.219 3.73438 152.438 17.4062 139.156C30.6875 125.875 52.5625 125.875 65.8438 139.156C79.125 152.438 79.125 174.312 65.8438 187.594ZM47.4844 173.531C52.1719 169.234 52.1719 161.812 47.4844 157.516C43.1875 152.828 35.7656 152.828 31.4688 157.516C27.5625 161.422 26.3906 168.453 26 173.531C26 176.656 28.3438 179 31.4688 179C36.5469 178.609 43.5781 177.438 47.4844 173.531Z" fill="#F6F6F6"/>
</svg>
