<svg width="121" height="85" viewBox="0 0 121 85" fill="none" xmlns="http://www.w3.org/2000/svg">
<path d="M18.5 6.5C18.5 3.3125 21.125 0.5 24.5 0.5H30.5C33.6875 0.5 36.5 3.3125 36.5 6.5V36.5V48.5V78.5C36.5 81.875 33.6875 84.5 30.5 84.5H24.5C21.125 84.5 18.5 81.875 18.5 78.5V66.5H12.5C9.125 66.5 6.5 63.875 6.5 60.5V48.5C3.125 48.5 0.5 45.875 0.5 42.5C0.5 39.3125 3.125 36.5 6.5 36.5V24.5C6.5 21.3125 9.125 18.5 12.5 18.5H18.5V6.5ZM102.5 6.5V18.5H108.5C111.688 18.5 114.5 21.3125 114.5 24.5V36.5C117.688 36.5 120.5 39.3125 120.5 42.5C120.5 45.875 117.688 48.5 114.5 48.5V60.5C114.5 63.875 111.688 66.5 108.5 66.5H102.5V78.5C102.5 81.875 99.6875 84.5 96.5 84.5H90.5C87.125 84.5 84.5 81.875 84.5 78.5V48.5V36.5V6.5C84.5 3.3125 87.125 0.5 90.5 0.5H96.5C99.6875 0.5 102.5 3.3125 102.5 6.5ZM78.5 36.5V48.5H42.5V36.5H78.5Z" fill="black"/>
</svg>
