
<svg width="225" height="189" viewBox="0 0 225 189" fill="none" xmlns="http://www.w3.org/2000/svg">
<path d="M18.3594 103.578C6.64062 92.6406 0 77.0156 0 60.6094V58.6562C0 31.3125 19.5312 7.875 46.4844 3.57812C64.4531 0.453125 82.4219 6.3125 95.3125 18.8125L100 23.5L104.688 18.8125C117.188 6.3125 135.547 0.453125 153.125 3.57812C180.078 7.875 200 31.3125 200 58.6562V60.6094C200 63.3438 199.609 65.6875 199.219 68.4219C190.234 63.7344 179.688 61 168.75 61C130.469 61 100 91.8594 100 129.75C100 144.203 104.297 157.484 111.719 168.422L110.547 169.594C107.812 172.328 103.906 173.5 100 173.5C95.7031 173.5 91.7969 172.328 89.0625 169.594L18.3594 103.578ZM225 129.75C225 150.062 214.062 168.422 196.875 178.578C179.297 188.734 157.812 188.734 140.625 178.578C123.047 168.422 112.5 150.062 112.5 129.75C112.5 109.828 123.047 91.4688 140.625 81.3125C157.812 71.1562 179.297 71.1562 196.875 81.3125C214.062 91.4688 225 109.828 225 129.75ZM194.922 112.953C192.578 110.609 188.281 110.609 185.938 112.953L162.5 136.781L151.172 125.453C148.828 123.109 144.531 123.109 142.188 125.453C139.844 127.797 139.844 132.094 142.188 134.438L157.812 150.062C160.156 152.406 164.453 152.406 166.797 150.062L194.922 121.938C197.266 119.594 197.266 115.297 194.922 112.953Z" fill="#F6F6F6"/>
</svg>
