
<svg width="250" height="177" viewBox="0 0 250 177" fill="none" xmlns="http://www.w3.org/2000/svg">
<path d="M28.125 23.375C28.125 15.5625 32.0312 8.53125 39.0625 4.625C45.7031 0.71875 53.9062 0.71875 60.9375 4.625C67.5781 8.53125 71.875 15.5625 71.875 23.375C71.875 31.5781 67.5781 38.6094 60.9375 42.5156C53.9062 46.4219 45.7031 46.4219 39.0625 42.5156C32.0312 38.6094 28.125 31.5781 28.125 23.375ZM25 85.0938C21.0938 89.3906 18.75 95.25 18.75 101.5C18.75 108.141 21.0938 114 25 118.297V85.0938ZM81.25 65.9531C69.5312 76.1094 62.5 91.3438 62.5 107.75C62.5 121.422 67.1875 133.531 75 143.297V151.5C75 158.531 69.1406 164 62.5 164H37.5C30.4688 164 25 158.531 25 151.5V141.344C10.1562 134.312 0 119.078 0 101.5C0 77.6719 19.5312 57.75 43.75 57.75H56.25C65.625 57.75 74.2188 60.875 81.25 65.9531ZM175 151.5V143.297C182.812 133.531 187.5 121.422 187.5 107.75C187.5 91.3438 180.078 76.1094 168.359 65.9531C175.391 60.875 184.375 57.75 193.75 57.75H206.25C230.078 57.75 250 77.6719 250 101.5C250 119.078 239.453 134.312 225 141.344V151.5C225 158.531 219.141 164 212.5 164H187.5C180.469 164 175 158.531 175 151.5ZM178.125 23.375C178.125 15.5625 182.031 8.53125 189.062 4.625C195.703 0.71875 203.906 0.71875 210.938 4.625C217.578 8.53125 221.875 15.5625 221.875 23.375C221.875 31.5781 217.578 38.6094 210.938 42.5156C203.906 46.4219 195.703 46.4219 189.062 42.5156C182.031 38.6094 178.125 31.5781 178.125 23.375ZM225 85.0938V118.297C228.906 114 231.25 108.141 231.25 101.891C231.25 95.25 228.906 89.3906 225 85.0938ZM125 1.5C133.594 1.5 141.797 6.57812 146.484 14C150.781 21.8125 150.781 31.5781 146.484 39C141.797 46.8125 133.594 51.5 125 51.5C116.016 51.5 107.812 46.8125 103.125 39C98.8281 31.5781 98.8281 21.8125 103.125 14C107.812 6.57812 116.016 1.5 125 1.5ZM93.75 107.75C93.75 114.391 96.0938 119.859 100 124.547V91.3438C96.0938 95.6406 93.75 101.5 93.75 107.75ZM150 91.3438V124.547C153.906 120.25 156.25 114.391 156.25 108.141C156.25 101.5 153.906 95.6406 150 91.3438ZM175 107.75C175 125.328 164.453 140.562 150 147.594V164C150 171.031 144.141 176.5 137.5 176.5H112.5C105.469 176.5 100 171.031 100 164V147.594C85.1562 140.562 75 125.328 75 107.75C75 83.9219 94.5312 64 118.75 64H131.25C155.078 64 175 83.9219 175 107.75Z" fill="#F6F6F6"/>
</svg>
