
<svg width="189" height="200" viewBox="0 0 189 200" fill="none" xmlns="http://www.w3.org/2000/svg">
<path d="M23.5156 49.6094C21.1719 50.7812 20 52.7344 20 54.6875C20 90.625 34.8438 151.953 92.6562 179.688C93.8281 180.469 95.7812 180.469 96.9531 179.688C154.766 152.344 169.609 90.625 170 54.6875C170 52.7344 168.438 50.7812 166.484 49.6094L95 19.5312L23.5156 49.6094ZM173.516 32.4219C182.109 36.3281 188.75 44.5312 188.75 54.6875C188.359 93.75 172.344 164.453 105.156 196.875C98.5156 200 91.0938 200 84.4531 196.875C17.2656 164.453 1.25 93.75 1.25 54.6875C0.859375 44.5312 7.5 36.3281 16.0938 32.4219L89.5312 1.17188C91.0938 0.390625 93.0469 0 95 0C96.5625 0 98.5156 0.390625 100.078 1.17188L173.516 32.4219ZM139.141 81.6406L89.1406 131.641C85.2344 135.547 79.375 135.547 75.8594 131.641L50.8594 106.641C46.9531 103.125 46.9531 97.2656 50.8594 93.75C54.375 89.8438 60.2344 89.8438 64.1406 93.75L82.5 112.109L125.859 68.75C129.375 64.8438 135.234 64.8438 139.141 68.75C142.656 72.2656 142.656 78.125 139.141 81.6406Z" fill="#F6F6F6"/>
</svg>
